<mxfile host="app.diagrams.net" modified="2023-06-20T14:12:55.541Z" agent="Mozilla/5.0 (Windows NT 10.0; Win64; x64) AppleWebKit/537.36 (KHTML, like Gecko) Chrome/114.0.0.0 Safari/537.36 Edg/114.0.1823.51" version="21.3.2" etag="dS5vvYUe4AFQ3WPTQm8B" type="github">
  <diagram name="Page-1" id="vBnwnPklQqzv6mxcFm7E">
    <mxGraphModel>
      <root>
        <mxCell id="0" />
        <mxCell id="1" parent="0" />
      </root>
    </mxGraphModel>
  </diagram>
</mxfile>
